<?xml version="1.0" encoding="UTF-8"?>
<svg id="Layer_2" xmlns="http://www.w3.org/2000/svg" viewBox="0 0 153.34 122.17">
  <defs>
    <style>
      .cls-1 {
        fill: #faccd2;
      }

      .cls-2 {
        fill: #ed999a;
      }

      .cls-3 {
        fill: #bcddf5;
      }

      .cls-4 {
        fill: #b19dcb;
      }

      .cls-5 {
        fill: #ef4437;
      }

      .cls-6 {
        fill: #9074b4;
      }

      .cls-7 {
        fill: #fcb64c;
      }

      .cls-8 {
        fill: #3d81c3;
      }

      .cls-9 {
        fill: #65ba6a;
      }

      .cls-10 {
        fill: #468fcd;
      }

      .cls-11 {
        fill: #70b1e1;
      }

      .cls-12 {
        fill: #c7e5c9;
      }

      .cls-13 {
        fill: #a5d5a6;
      }

      .cls-14 {
        fill: #80c785;
      }

      .cls-15 {
        fill: #429f47;
      }

      .cls-16 {
        fill: #95c8ec;
      }

      .cls-17 {
        fill: #fecc80;
      }

      .cls-18 {
        fill: #d1c4e0;
      }

      .cls-19 {
        fill: #ee5351;
      }

      .cls-20 {
        fill: #4cae4f;
      }

      .cls-21 {
        fill: #ffdfb2;
      }

      .cls-22 {
        fill: #e57272;
      }

      .cls-23 {
        fill: #55a0d7;
      }
    </style>
  </defs>
  <g id="Layer_1-2" data-name="Layer_1">
    <g id="_x31_142290">
      <path id="_x31_239779" class="cls-6" d="M6.74,66.23c-4.03-7.39-9.11-18.71-5.51-26.23,4.67-9.74,16.56-14.12,29.39-20.25v.02s1.51,2.57,1.51,2.57c-7.19,3.26-14.69,6.25-20.84,11.23-4.18,3.38-6.6,9-6.96,14.28-.44,6.4,3.16,11.9,6.31,17.29l-3.88,1.09h0Z"/>
      <path id="_x31_239777" class="cls-12" d="M32.13,22.33l4.04,6.9c-3.53,1.46-6.99,3.11-10.24,5.1-1.55.95-3.04,1.99-4.4,3.19-3.22,2.85-4.23,7.03-4.86,11.12-.76,4.94-.57,9.92,1.07,14.49l-7.1,2.01c-3.15-5.39-6.74-10.9-6.31-17.29.36-5.28,2.78-10.9,6.96-14.28,6.15-4.98,13.65-7.97,20.84-11.23Z"/>
      <path id="_x31_239766" class="cls-14" d="M36.16,29.23l4.11,7.03c-2.45,1.37-4.8,2.93-6.74,4.98-1.43,1.51-2.7,3.41-3.49,5.34-1.02,2.5-1.33,5.25-1.73,7.9-.29,1.9-.33,3.81-.21,5.72l-10.36,2.93c-1.64-4.57-1.83-9.55-1.07-14.49.63-4.08,1.64-8.27,4.86-11.12,1.36-1.2,2.85-2.24,4.4-3.19,3.25-1.99,6.7-3.64,10.24-5.09Z"/>
      <path id="_x31_239765" class="cls-9" d="M40.27,36.26l5.19,8.87c-1.55,1.21-3.05,2.47-4.44,3.74-2.92,2.66-5.64,5.91-7.03,9.67l-5.88,1.66c-.13-1.91-.08-3.83.21-5.72.4-2.65.72-5.4,1.73-7.9.79-1.93,2.06-3.83,3.49-5.34,1.94-2.04,4.29-3.61,6.74-4.98Z"/>
      <path id="_x31_239764" class="cls-20" d="M45.29,46.77c-1.63,1.56-5.52,5.33-6.51,7.33-.65,1.31-1.25,2.47-1.75,3.61l-.04-.02-3.01.85c1.4-3.75,4.12-7.01,7.03-9.67,1.4-1.27,2.89-2.53,4.44-3.74l.58.99c-.28.22-.53.44-.75.65Z"/>
      <path id="_x31_239860" class="cls-6" d="M87.97,1.06l.31,1.78c-5.39.62-10.74,1.58-15.97,2.85-4.57,1.11-8.82,2.95-13.2,4.62-3.43,1.3-7.05,2.12-10.39,3.64-4.71,2.14-9.14,4.87-13.82,7.1-.91.43-1.84.86-2.77,1.28l-1.5-2.57v-.02c.29-.14.58-.28.87-.42,12.68-6.13,25.28-11.8,34.95-14.43,6.31-1.72,13.79-3.01,21.52-3.84Z"/>
      <path id="_x31_239848" class="cls-12" d="M36.16,29.23l-4.03-6.9c.93-.42,1.85-.85,2.77-1.28,4.68-2.23,9.11-4.96,13.82-7.1,3.34-1.52,6.96-2.33,10.39-3.64,4.38-1.66,8.63-3.51,13.2-4.62,5.23-1.27,10.58-2.23,15.97-2.85l.85,4.88c-7.2,1.32-14.31,3.1-21.16,5.64-4.24,1.57-5.89,2.57-10.38,4.12-2.13.74-6.31,1.94-8.31,3.02-1.2.65-16.54,7.46-12.71,8.56-.14.06-.27.11-.41.17Z"/>
      <path id="_x31_239847" class="cls-13" d="M89.13,7.72l.46,2.6c-8.6,1.73-16.88,4.67-25.01,8.02-6.82,2.81-13.65,5.46-20.6,7.92-2.48.88-4.96,1.79-7.41,2.79-3.82-1.1,11.51-7.91,12.71-8.56,2-1.08,6.18-2.28,8.31-3.02,4.49-1.55,6.13-2.55,10.38-4.12,6.85-2.54,13.96-4.32,21.16-5.64Z"/>
      <path id="_x31_239846" class="cls-14" d="M36.57,29.06c2.45-1,4.93-1.91,7.41-2.79,6.95-2.46,13.79-5.12,20.6-7.92,8.14-3.35,16.41-6.3,25.01-8.02l.83,4.73c-1.44.39-2.86.86-4.26,1.4-6.15,2.37-11.82,5.93-17.81,8.69-1.72.79-3.46,1.54-5.23,2.2-2.84,1.07-5.67,2.21-8.6,3.01-2.2.59-4.39,1.09-6.5,1.98-1.74.73-3.4,1.63-5.07,2.5-.89.46-1.79.93-2.67,1.43l-4.11-7.03c.13-.05.27-.11.4-.17Z"/>
      <path id="_x31_239845" class="cls-9" d="M90.42,15.06l.87,4.96c-2.49,1.43-4.87,3.06-7.14,4.59-1.86,1.26-3.6,3.02-5.56,4.03-5.87,3.03-12.35,4.89-18.4,7.56-2.65,1.17-5.29,2.36-7.73,3.94-2.34,1.51-4.72,3.21-7,4.99l-5.19-8.87c.88-.5,1.78-.97,2.67-1.43,1.67-.86,3.34-1.77,5.07-2.5,2.11-.89,4.3-1.39,6.5-1.98,2.94-.79,5.76-1.93,8.6-3.01,1.77-.67,3.51-1.41,5.23-2.2,5.99-2.76,11.66-6.32,17.81-8.69,1.4-.54,2.82-1,4.26-1.4Z"/>
      <path id="_x31_239844" class="cls-20" d="M58.05,38.93c-2.65,1.78-8.86,4.66-12.01,7.19l-.58-.99c2.28-1.79,4.66-3.48,7-4.99,2.44-1.58,5.08-2.77,7.73-3.94,6.05-2.67,12.53-4.54,18.4-7.56,1.96-1.01,3.7-2.77,5.56-4.03,2.27-1.53,4.65-3.16,7.14-4.59l.25,1.43v.02c-1.61.87-3.18,1.69-4.54,2.81-2.73,2.26-7.23,4.7-9.19,5.87-3.49,2.08-16.35,6.5-19.75,8.78Z"/>
      <path id="_x31_239812" class="cls-6" d="M152.6,27.45l-2.07-.03c.42-1,.72-2.05.79-3.2.23-4.03-1.32-8.68-4.06-11.64-4.48-4.84-12.48-6-18.55-7.42-7.24-1.7-14.53-2.82-21.97-3.08-3.03-.11-6.07-.09-9.11.03V.28c9.34-.51,18.47-.32,25.84.64,5.76.75,19.94,4.05,26.18,11.52,2.15,2.57,4.25,5.85,3.55,12.02-.13,1.15-.34,2.13-.6,3Z"/>
      <path id="_x31_239810" class="cls-12" d="M147.26,12.58c2.75,2.97,4.29,7.61,4.06,11.64-.07,1.15-.37,2.2-.79,3.2l-3.35-.05c.96-2.46,1.55-4.74-.32-7.75-2.03-3.28-5.9-5.34-9.33-6.85-3.05-1.34-6.24-2.38-9.47-3.18-5.77-1.43-11.7-2.16-17.63-2.59-4.19-.31-8.57-.64-12.84-.43l.02-4.46c3.04-.12,6.08-.14,9.11-.03,7.44.26,14.73,1.38,21.97,3.08,6.07,1.43,14.07,2.59,18.55,7.43Z"/>
      <path id="_x31_239809" class="cls-13" d="M146.87,19.62c1.87,3.02,1.28,5.3.32,7.75l-2.72-.04c.61-2.18.87-4.62.06-6.27-2.72-5.49-9.73-7.6-15.19-9-2.36-.61-4.74-1.08-7.12-1.56-3.47-.7-7.04-1.33-10.58-1.56-4.67-.31-9.38-.3-14.05.17l.02-2.54c4.27-.22,8.65.12,12.84.43,5.92.43,11.85,1.16,17.63,2.59,3.23.8,6.42,1.84,9.47,3.18,3.43,1.5,7.3,3.57,9.33,6.85Z"/>
      <path id="_x31_239808" class="cls-14" d="M144.52,21.06c.82,1.65.55,4.08-.06,6.27l-3.25-.05c1.04-2.71-.04-3.87-1.14-5.45-1.46-2.11-3.78-2.44-6.01-3.25-2.69-.98-5.42-1.56-8.25-2.04-1.62-.28-3.23-.57-4.82-.99-5.13-1.35-9.97-2.52-15.32-2.46-2.71.03-5.43.2-8.13.56l.03-4.52c4.66-.47,9.38-.48,14.05-.17,3.54.23,7.11.86,10.58,1.56,2.38.48,4.76.96,7.12,1.56,5.47,1.4,12.47,3.51,15.19,9Z"/>
      <path id="_x31_239801" class="cls-9" d="M140.08,21.83c1.09,1.58,2.17,2.74,1.14,5.45l-2.12-.03c0-.06,0-.13,0-.19-.07-.5-.25-1-.53-1.43-2.13-3.21-7.38-3.98-10.3-4.93-4.14-1.34-8.29-2.35-12.48-3.43-4.42-1.14-9-1.95-13.57-1.36-1.59.21-3.14.61-4.66,1.14l.02-3.43c2.7-.35,5.43-.52,8.13-.56,5.34-.06,10.19,1.11,15.32,2.46,1.59.42,3.2.71,4.82.99,2.82.48,5.55,1.06,8.25,2.04,2.23.81,4.55,1.14,6.01,3.25Z"/>
      <path id="_x31_239799" class="cls-20" d="M118.33,19.21c-6.47-1.67-14.11-4.04-20.78-1.19v-.02s0-.95,0-.95c1.52-.53,3.07-.93,4.66-1.14,4.57-.6,9.15.21,13.57,1.36,4.19,1.09,8.34,2.09,12.48,3.43,2.93.94,8.18,1.72,10.3,4.93.28.42.46.92.53,1.43,0,.06.01.12,0,.19l-2.06-.03c.11-.34.1-.74-.11-1.22-.41-.98-2.61-1.92-3.25-2.11-2.48-.77-4.56-1.5-7.01-2.36-2.58-.9-5.48-1.56-8.34-2.3Z"/>
      <path id="_x31_239762" class="cls-6" d="M10.95,73.42c-.34-.51-.67-1.04-.99-1.59-.76-1.3-1.93-3.25-3.21-5.6h0s3.88-1.1,3.88-1.1c.71,1.22,1.4,2.42,2.01,3.64.55,1.09,1.07,2.18,1.64,3.23l-3.24,1.37-.09.06Z"/>
      <path id="_x31_239760" class="cls-12" d="M20.98,69.17l-6.7,2.83c-.57-1.05-1.09-2.15-1.64-3.23-.61-1.21-1.3-2.42-2.01-3.64l7.1-2.01c.65,1.83,1.54,3.59,2.69,5.26.19.27.37.53.56.79Z"/>
      <path id="_x31_239746" class="cls-14" d="M28.84,65.86l-7.86,3.31c-.19-.26-.37-.52-.56-.79-1.15-1.67-2.03-3.43-2.69-5.26l10.37-2.93c.04.59.09,1.18.16,1.76.14,1.21.52,2.47.56,3.68,0,.07,0,.14,0,.21Z"/>
      <path id="_x31_239745" class="cls-9" d="M28.1,60.2l5.88-1.66c-.31.83-.56,1.69-.73,2.57-.2,1.06-.38,2.13-.31,3.02l-4.11,1.73c0-.07,0-.14-.01-.22-.05-1.21-.42-2.47-.56-3.68-.07-.58-.12-1.17-.16-1.76Z"/>
      <path id="_x31_239744" class="cls-20" d="M37.04,57.71c-.75,1.7-1.28,3.34-1.45,5.37h-.12s-2.52,1.05-2.52,1.05c-.07-.89.11-1.96.31-3.02.17-.88.41-1.74.73-2.57l3.01-.85.04.02Z"/>
      <path id="_x31_239743" class="cls-6" d="M21.05,80.85c-1.29-.31-4.06-.69-3.86,1.14.05.44.1.92.16,1.42-.09-.59-.19-1.21-.35-1.84-.32-1.27-3.4-4.13-6.05-8.14l.09-.06,3.24-1.37c1.36,2.53,2.97,4.79,5.86,6.03.15.06.3.12.45.18.64.23,1.31.4,1.92.68.82.37,1.41,1.04,2.01,1.68.56.61.63,1.04.17,1.59-.13-.05-.26-.1-.38-.15-1.1-.45-2.12-.88-3.27-1.16Z"/>
      <path id="_x31_239742" class="cls-12" d="M31.02,84.36c-1-.9-2.57-1.25-3.74-1.44-3.87-1.01-1.7-.92-2.43-1.91-.61-.83.01-.14-.85-.99-.39-.38-1.13-.93-1.5-1.14l-1.84-.65c-.15-.05-1.3-.56-1.43-.64-2.57-1.66-3.6-3.06-4.96-5.59l6.7-2.83c.82,1.13,1.67,2.24,2.38,3.44.43.73.72,1.64,1.25,2.3.36.45.89.74,1.28,1.17,1.24,1.33,2.35,2.75,3.83,3.83.68.5,1.94,1.85,2.78,2.04l.3.07c-.05.04-.54.36-.71.69-.18.34-.16.5-.23.8-.04.21-.05.41-.05.6.02.71-.26.72-.79.25Z"/>
      <path id="_x31_239735" class="cls-14" d="M36.14,80.32c-1.23.33-2.29,1-3.33,1.71l-.03-.05c-.8.09-2.37-1.56-3.05-2.07-1.48-1.09-2.59-2.51-3.83-3.83-.39-.42-.92-.72-1.28-1.17-.53-.66-.82-1.57-1.25-2.3-.71-1.2-1.56-2.31-2.38-3.44l7.86-3.31c.07.96.34,1.63.69,2.59.28.75,1.62,6.75,2.06,7.42h.4c.02.55.08,1.12.16,1.68.14.94.38,2.35,1.45,2.65.99.28,2.59-.23,3.47-.69.91-.48.9-1.12.68-2.05.42,1.79.87,3.49,1.31,4.74-.53-1.35-1.4-2.29-2.92-1.88Z"/>
      <path id="_x31_239734" class="cls-9" d="M35.38,66.72c-.78-.59-1.63.58-1.98,1.14-.73,1.19-1.03,2.62-1.21,3.98-.18,1.31-.26,2.67-.2,4.01h-.4c-.43-.65-1.78-6.65-2.06-7.4-.35-.96-.62-1.63-.69-2.59l4.11-1.73c.09,1.28.69,2.18,2.46,2.15l.2-.02c.03.33.06.68.11,1.03-.02-.07-.04-.13-.06-.19-.06-.16-.15-.29-.27-.38Z"/>
      <path id="_x31_239733" class="cls-20" d="M35.59,63.08c-.08.96-.08,2.01.02,3.18l-.2.02c-1.77.03-2.36-.87-2.46-2.15l2.52-1.06h.12Z"/>
      <path id="_x31_239832" class="cls-6" d="M152.6,27.45c-.78,2.64-1.98,4.21-2.53,6.22-.47-.21-1.18-.55-2.1-.97h0c.73-1.87,1.82-3.51,2.56-5.28l2.07.03Z"/>
      <path id="_x31_239831" class="cls-12" d="M147.97,32.7c-.67-.31-1.46-.66-2.36-1.03v-.03c.43-1.57,1.06-2.95,1.58-4.27l3.35.05c-.74,1.77-1.83,3.41-2.56,5.28h0Z"/>
      <path id="_x31_239830" class="cls-13" d="M143.2,30.71h0c.44-.91.91-2.1,1.26-3.38l2.72.04c-.52,1.32-1.15,2.7-1.56,4.27v.03c-.75-.31-1.55-.63-2.42-.96Z"/>
      <path id="_x31_239829" class="cls-14" d="M143.2,30.71c-.95-.36-1.97-.72-3.08-1.08-.03,0-.06-.02-.09-.03v-.02c.55-.88.93-1.64,1.18-2.3l3.25.05c-.35,1.28-.83,2.47-1.26,3.37h0Z"/>
      <path id="_x31_239828" class="cls-9" d="M140.04,29.6c-.87-.28-2.29-.65-3.23-.88.51.08,1.07.06,1.45-.11.47-.2.82-.84.84-1.37l2.12.03c-.25.66-.64,1.42-1.18,2.3v.02Z"/>
      <path id="_x31_239813" class="cls-20" d="M136.8,28.72c-.27-.07-.49-.12-.66-.16t0,0c-.07-.02-.14-.05-.21-.08.48-.34.93-.73,1.1-1.26l2.06.03c-.02.53-.37,1.16-.84,1.37-.38.17-.94.18-1.45.11t0,0Z"/>
      <path id="_x31_239797" class="cls-6" d="M97.64.28v1.83c-3.13.13-6.25.37-9.36.73l-.31-1.78c3.2-.34,6.45-.6,9.67-.78Z"/>
      <path id="_x31_239796" class="cls-12" d="M97.63,2.11l-.02,4.46c-1.47.07-2.92.22-4.35.44-1.38.22-2.75.45-4.12.71l-.85-4.88c3.11-.36,6.23-.61,9.35-.73Z"/>
      <path id="_x31_239795" class="cls-13" d="M97.6,6.57l-.02,2.54c-.65.06-1.3.14-1.95.22-2.04.26-4.05.59-6.05,1l-.46-2.6c1.37-.25,2.74-.48,4.12-.71,1.43-.23,2.89-.37,4.35-.44Z"/>
      <path id="_x31_239785" class="cls-14" d="M97.59,9.11l-.03,4.52c-2.41.32-4.8.78-7.14,1.42l-.83-4.73c2-.4,4.01-.74,6.05-1,.65-.08,1.3-.16,1.95-.22Z"/>
      <path id="_x31_239783" class="cls-9" d="M97.56,13.63l-.02,3.43c-2.15.76-4.24,1.79-6.26,2.96l-.87-4.96c2.34-.64,4.73-1.11,7.14-1.42Z"/>
      <path id="_x31_239781" class="cls-20" d="M91.54,21.46v-.02s-.26-1.43-.26-1.43c2.02-1.16,4.1-2.2,6.26-2.96v.95s0,.02,0,.02c-.89.38-1.77.86-2.62,1.44-1.13.77-2.27,1.4-3.39,2Z"/>
      <path id="_x31_239570" class="cls-7" d="M73.77,116.1c-1.29-.21-2.57-.45-3.86-.62-1.35-.17-2.7.11-4.01-.27-.79-.23-1.6-.59-2.29-1.05-.49-.32-.68-.75-1.07-1.12-.48-.46-1.11-.77-1.6-1.24-.72-.7-1.28-1.48-2.11-2.08-2-1.42-3.83-3.14-6.08-4.21-2.92-1.39-5.11-3.28-8.34-3.98-3.51-.76-6.59-2.35-9.41-4.53-.82-.64-1.57-1.24-2.3-1.94-1.12-1.06-2.53-1.96-3.91-2.64-.62-.3-1.27-.48-1.94-.72-.68-.24-1.33-.73-1.89-1.22-1.67-1.45-2.79-3.89-2.09-6.1.29-.92.86-1.3,1.52-1.93.11-.11.21-.21.29-.31-.13-.05-.26-.1-.39-.15-1.09-.45-2.11-.88-3.26-1.15-1.29-.31-4.06-.69-3.86,1.14,0,.09.02.18.03.28.01-.36.07-.65.19-.79.64-.76,1.54,1.76,1.75,2.29,2.09,5.18,5.61,9.32,10.11,12.6,2.11,1.54,4.3,2.99,6.5,4.41,1.54,1,3.02,2.08,4.49,3.18,1.37,1.02,2.99,1.93,4.24,3.08.88.8.66,2.37-.52,2.71-.52.15-.95.14-1.34.02,5.27,3.65,9.86,6.12,11.13,5.74,3.71-1.09,3.91-.02,8.13,2.88,2.23,1.53,4.65,2.61,7.3,3.15,1.77.37,4.61,1.34,4.78-1.49.08-1.29.02-2.64-.19-3.95Z"/>
      <path id="_x31_239568" class="cls-7" d="M72.87,113.39c-.06,0-.14,0-.23-.01-.84-.05-2.87-.16-3.43-.31-1.28-.36-2.5-.89-3.65-1.56-3-1.74-5.49-4.21-7.88-6.7-2.19-2.28-5.01-4.16-7.9-5.42-2.22-.97-4.57-1.54-6.81-2.46-2.14-.88-4.04-2.25-5.99-3.46-1.94-1.2-4.22-1.91-6.05-3.26-.36-.27-.61-.72-.95-.97-.26-.19-.6-.23-.87-.43-.6-.44-.9-1.27-.92-2-.02-1,.33-1.83.53-2.79.05-.23.08-.44.11-.65-.04,0-.07-.02-.11-.03-1.35-.35-2.72-.68-4.03-1.17-.08.1-.18.2-.29.31-.67.63-1.23,1.01-1.52,1.93-.71,2.21.42,4.65,2.09,6.1.56.49,1.21.97,1.89,1.22.67.24,1.32.42,1.94.72,1.38.68,2.79,1.58,3.91,2.64.73.69,1.48,1.3,2.3,1.94,2.83,2.19,5.91,3.77,9.41,4.53,3.22.7,5.41,2.59,8.34,3.98,2.25,1.07,4.08,2.78,6.08,4.21.84.6,1.39,1.38,2.11,2.08.48.47,1.12.78,1.6,1.24.39.38.58.81,1.07,1.12.69.45,1.5.82,2.29,1.05,1.32.38,2.66.1,4.01.27,1.29.16,2.57.4,3.86.62-.14-.94-.36-1.86-.65-2.72h-.25Z"/>
      <path id="_x31_239565" class="cls-7" d="M29.12,88.79c.28.2.61.24.87.43.35.26.59.7.95.97,1.82,1.36,4.11,2.06,6.05,3.26,1.95,1.21,3.85,2.58,5.99,3.46,2.23.92,4.59,1.49,6.81,2.46,2.89,1.26,5.71,3.14,7.9,5.42,2.39,2.49,4.88,4.95,7.88,6.7,1.15.67,2.37,1.2,3.65,1.56.56.16,2.6.27,3.43.31.09,0,.17,0,.23.01h.25s0-.03-.01-.04c-.13-.37-.7-1.7-.97-1.91-.24-.19-1.52-.26-1.84-.34-.33-.09-.64-.22-.94-.39-1.06-.59-3.26-2.72-3.51-2.93-.82-.69-1.77-1.52-2.55-2.25-.78-.73-1.44-1.34-2.09-2.3-.49-.72-8.88-5.68-11.86-7.04-1.07-.48-1.99-1.29-2.97-1.77-1.57-.77-3.18-1.19-5.02-1.69-1.89-.51-4.61-1.98-6.17-3.11-1.92-1.4-2.54-2.58-3.61-4.5-.66-1.19-1.55-1.44-2.74-1.74-.03.21-.07.42-.11.65-.2.96-.55,1.79-.53,2.79,0,.72.32,1.55.91,1.99Z"/>
      <path id="_x31_239564" class="cls-21" d="M91.4,114.74c-.34.11-.69.22-1.02.34-.38.14-1.02.73-1.34.78-.09.02-.2-.01-.29.03-.58,1.1-1.98,1.49-3.1,1.64-2.1.27-4.27.35-6.37.19-1.45-.11-3.83-.25-4.74-1.62l-.16-.31c.27,2.21.05,4.76-.25,6.34,2.72.23,7.99-.55,9.54-.78,1.72-.26,6.68-1.16,8.27-1.64-.34-2.1-.42-4.2-.53-4.97Z"/>
      <path id="_x31_239542" class="cls-21" d="M79.27,117.71c2.11.16,4.28.09,6.37-.19,1.12-.15,2.53-.54,3.1-1.64.09-.04.2-.01.29-.03.32-.06.96-.64,1.34-.78.33-.12.67-.24,1.02-.34,0-.01,0-.03,0-.04-.08-.57-.1-1.38-.15-2.24-1.03.06-2.21-.1-3.15,0-.62.06-1.26.12-1.84.39-.88.41-2.19.55-3.16.55h-.99c-.67,0-1.28-.09-1.95-.06-1.44.07-2.86.06-4.29.06-.38,0-.76,0-1.14-.03-.26-.03-.54-.05-.83-.07.09.57.21,1.08.28,1.41.08.35.14.71.18,1.09l.16.31c.91,1.37,3.28,1.51,4.74,1.62Z"/>
      <path id="_x31_239541" class="cls-21" d="M75.88,113.38c1.43,0,2.85.01,4.29-.06.67-.03,1.28.06,1.95.06h.99c.96,0,2.28-.13,3.16-.55.58-.27,1.22-.33,1.84-.39.93-.09,2.12.07,3.15,0-.09-1.44-.28-3.02-1.03-3.83-.68-.73-2.25.21-3.76.57-1.67.4-2.35.5-4.38.55-1.38.03-2.83-.19-4.4-.25-1.7-.06-3.11-.24-3.64.74-.39.71-.29,2-.11,3.06.29.02.58.04.83.07.38.04.76.03,1.14.03Z"/>
      <path id="_x31_239540" class="cls-17" d="M96.33,112.99c-1.43.45-2.78,1.12-4.25,1.45l-.18.04c.03.44.06.88.07,1.31.04,1.23.31,2.71.45,3.78,1.92-.55,3.58-1.07,6.01-1.91,1.68-.58,1.28-.43,2.75-1.03-.39-1.52-.96-2.83-1.08-4.06-1.49-.03-2.61.04-3.79.41Z"/>
      <path id="_x31_239539" class="cls-17" d="M100.64,110.19c-.5.03-1.06-.08-1.53-.25-.41-.16-.8-.41-1.24-.44-.48-.03-1,0-1.47.09-.42.08-.82.27-1.2.49-.6.35-1.17.71-1.72,1.15-.51.41-1.03.89-1.63,1.17-.03.68,0,1.39.06,2.08l.18-.04c1.47-.33,2.82-1,4.25-1.45,1.18-.37,2.3-.44,3.79-.41-.06-.57-.02-1.13.19-1.68.1-.25.21-.49.33-.71Z"/>
      <path id="_x31_239538" class="cls-17" d="M100.64,110.19c.42-.76.95-1.36,1.35-1.89.86-1.14,1.74-2.34,2.83-4.51.72-1.43,3.4-5.36,3.04-7-.34-1.56-2.84.35-5.13.43-2.1.08-2.71-.81-3.37,1.25-.95,2.96-3.5,7.11-5.62,9.31-.99,1.03-1.46,2.07-1.75,3.54-.07.35-.11.71-.12,1.07.61-.28,1.12-.76,1.63-1.17.54-.44,1.11-.8,1.72-1.15.38-.22.77-.41,1.2-.49.47-.09.99-.12,1.47-.09.44.03.83.29,1.24.44.46.18,1.03.29,1.52.26Z"/>
      <path id="_x31_239519" class="cls-17" d="M122.3,100.12c-.09-.08-.19-.15-.29-.21v.06c-.8,2.32-4.05,4.87-5.96,6.21-1.55,1.08-3.14,2.09-4.92,2.72-.53.19-.97.45-1.47.69-.61.29-1.22.5-1.81.82-.55.3-1.15.46-1.7.75-.56.3-1.23.45-1.85.58-.62.13-1.18.34-1.79.51-.43.12-.86.24-1.3.32-.24.04-.48,0-.72-.01.04.43.15.86.28,1.27.06.2,1.01,2.58,1.05,2.56,2.51-1.06,4.96-2.3,7.07-3.36,1.87-.95,3.4-1.77,5.08-2.7,1.88-1.04,3.58-2.44,5.19-3.84.38-.33,2.77-2.52,5-4.68-.88-.95-1.48-1.35-1.87-1.68Z"/>
      <path id="_x31_239518" class="cls-17" d="M101.2,112.57c.44-.08.87-.2,1.3-.32.61-.18,1.17-.38,1.79-.51.62-.13,1.29-.28,1.85-.58.54-.29,1.15-.45,1.7-.75.59-.33,1.2-.54,1.81-.82.5-.24.95-.5,1.47-.69,1.79-.63,3.37-1.63,4.92-2.72,1.91-1.34,5.16-3.89,5.94-6.21v-.06c-.45-.29-.95-.37-1.47-.35h0c-1.48,1.07-3.48,2.89-4.86,4.01-.74.6-1.47,1.19-2.23,1.77-.63.48-1.28.95-1.94,1.39-2.15,1.43-4.36,2.71-6.93,3.16-.73.13-1.47.21-2.2.27-.38.03-.78.02-1.18.01-.25.37-.45.68-.53.88-.19.48-.23.99-.18,1.49.24.01.48.06.71.01Z"/>
      <path id="_x31_239516" class="cls-17" d="M102.37,110.17c.74-.06,1.47-.15,2.2-.27,2.57-.45,4.78-1.73,6.93-3.16.66-.44,1.31-.91,1.94-1.39.75-.57,1.49-1.17,2.23-1.77,1.38-1.12,3.37-2.94,4.86-4.01h0c-.88.04-1.81.38-2.66.52-1.47.23-3.79-1.22-6.46-2.59-1.7-.87-1.84-1.1-2.84.31-1.32,1.86-1.81,2.97-2.71,4.89-.43.92-1.65,3.06-2.23,4.12-.3.55-1.64,2.23-2.43,3.37.4,0,.8.02,1.18-.02Z"/>
      <path id="_x31_239712" class="cls-3" d="M97.75,31.12c-.09.09-.17.18-.25.27,1.22.8,2.54,1.54,3.79,1.87.06-.07.13-.14.2-.21.09-.08.21-.14.3-.21-.03.01-.05.02-.08.04.03-.01.05-.02.08-.04h0c1.2-.54,2.58-.51,3.94-.51,2.75,0,5.45.43,8.05,1.22l.66.27c.34-1.58.74-2.86.74-4.52,0-.13,0-.26,0-.38-5.97-.9-14.84-.43-17.43,2.19Z"/>
      <path id="_x31_239732" class="cls-3" d="M114.45,24.69c-.33-.95-1.07-1.72-1.33-2.71-.27-1.01.25-1.1.92-1l-1.96-.39c-2.91-.5-5.55-.64-8.08-.23-3.18.51-5.74,1.2-7.95,2.45-1.67.94-3.27,1.82-4.67,2.79.31.65.78,1.29,1.32,1.9.73-.71,1.49-1.37,2.45-1.81,1.1-.5,2.31-.84,3.43-1.28.01,0,.03,0,.04-.02,1.27-.5,2.58-.96,3.91-1.29,2.61-.64,5.39-.83,8.03-.2,1.1.26,2.07.72,3,1.36.18.13.98.74,1.09,1.08h0c-.06-.23-.13-.45-.21-.67Z"/>
      <path id="_x31_239731" class="cls-3" d="M93.75,28.55c.06-.09.12-.19.19-.28.93-1.26,2.34-1.68,3.75-2.13,1.47-.46,2.89-1.09,4.35-1.57,3.36-1.11,6.83-1.09,10.16.12.68.25,1.19.79,1.96.89,1.32.17-.32-1.11-.6-1.3-.93-.65-1.9-1.1-3-1.36-2.64-.63-5.41-.44-8.03.2-1.33.33-2.64.79-3.91,1.29-.01,0-.03,0-.04.02-1.13.44-2.33.78-3.43,1.28-.97.44-1.73,1.1-2.45,1.81h0s.08.09.12.14h0s.08.09.12.14c0,0,0,0,0,0,.04.04.08.09.13.13h0c.21.22.43.43.66.64Z"/>
      <path id="_x31_239713" class="cls-3" d="M115.19,28.93c-.03-1.21-.2-2.41-.52-3.57h0c.05.17-.06.27-.49.22-.77-.1-1.28-.65-1.96-.89-3.33-1.21-6.8-1.23-10.16-.12-1.47.48-2.88,1.11-4.35,1.57-1.42.44-2.82.87-3.75,2.13-.07.09-.13.19-.19.28.53.49,1.07.92,1.56,1.28.66.49,1.41,1.04,2.2,1.56.08-.09.16-.18.25-.27,2.6-2.62,11.47-3.09,17.44-2.19Z"/>
      <path id="_x31_239692" class="cls-16" d="M96.88,34.02c1.37.13,2.79.16,4.1-.12.06-.23.17-.44.32-.63-1.26-.33-2.58-1.07-3.79-1.87-.72.86-.88,1.77-.62,2.62Z"/>
      <path id="_x31_239656" class="cls-16" d="M110.64,90.49c-.1.22-.18.43-.23.63.33.13.64.26.94.4,1.28.62,2.54,1.34,3.83,1.96-.02-.23-.06-.53-.06-.53,0-.02,0-.05,0-.07-1.37-.3-2.76-.86-3.83-1.77-.23-.19-.44-.4-.66-.62Z"/>
      <path id="_x31_239711" class="cls-16" d="M88.88,31.62c.35-1,1.26-1.76,2.05-2.43.63-.53,1.19-1.13,1.77-1.69h0c-.54-.6-1.01-1.24-1.32-1.9-1.91,1.33-3.46,2.85-4.33,4.99.92.47,1.98,1.23,2.96,1.72-.38-.19-.77-.42-1.15-.65,0-.01.01-.03.02-.04Z"/>
      <path id="_x31_239655" class="cls-11" d="M112.45,87.78h0s-.04.05-.06.07h0c-.06.07-.11.14-.17.2,0,0-.01.02-.02.02-.01.02-.02.03-.04.05,0,.01-.02.03-.03.04,0,.01-.02.03-.03.04-.01.02-.03.03-.04.05,0,0-.02.02-.02.03-.02.03-.04.06-.06.08-.01.02-.03.04-.04.05,0,0,0,.01-.01.02,0,.01-.02.03-.03.04,0,0-.01.02-.02.02,0,.01-.02.03-.03.04,0,0,0,.01-.02.02-.01.02-.03.04-.05.06,0,0,0,.01-.01.02-.01.02-.02.03-.03.05,0,0-.01.02-.02.03,0,.01-.02.03-.03.04,0,0-.01.02-.02.03,0,.01-.02.03-.03.04,0,0-.01.02-.02.03-.02.02-.03.04-.05.07,0,0-.01.02-.02.03,0,.01-.02.03-.03.04,0,0-.02.02-.02.03,0,.01-.02.03-.03.04,0,0-.02.02-.02.03-.01.02-.02.04-.04.05,0,.01-.02.03-.03.04-.01.02-.03.04-.04.06,0,.01-.02.02-.02.03,0,.02-.02.03-.03.05,0,.01-.02.02-.02.04,0,.02-.02.03-.03.05,0,.01-.01.02-.02.03-.02.03-.03.05-.05.08,0,0-.01.02-.02.03-.01.02-.02.04-.03.05,0,.01-.01.02-.02.04,0,.02-.02.03-.03.05,0,.01-.01.02-.02.04,0,.02-.02.04-.03.05,0,0-.01.02-.02.03-.02.03-.03.05-.05.08,0,0-.01.02-.02.03,0,.02-.02.04-.03.05,0,.01-.01.02-.02.04,0,.02-.02.04-.03.05,0,.01-.01.02-.02.03-.01.02-.02.05-.04.07,0,0,0,.01-.01.02-.01.03-.03.05-.04.08,0,0,0,.02-.02.03,0,.02-.02.04-.03.06,0,0,0,.02-.02.03,0,.02-.02.04-.03.06,0,0,0,.02-.01.03,0,0,0,0,0,0,.21.23.43.43.65.62,1.08.9,2.46,1.46,3.83,1.77,0-.01,0-.02,0-.03h0s0-.02,0-.03h0s0-.02,0-.03c0,0,0,0,0,0,0,0,0-.02,0-.03,0,0,0,0,0,0,0,0,0-.02,0-.03,0,0,0,0,0,0,0,0,0-.02,0-.03,0,0,0,0,0,0,0,0,0-.02,0-.03,0,0,0,0,0,0,0,0,0-.02,0-.03,0,0,0,0,0,0,0,0,0-.02.01-.03,0,0,0,0,0,0,0,0,0-.02.01-.03,0,0,0,0,0,0,0,0,0-.02.01-.03,0,0,0,0,0,0,0,0,0-.02.01-.03,0,0,0,0,0,0,0,0,0-.02.02-.03,0,0,0,0,0,0,0,0,0-.02.02-.03,0,0,0,0,0,0,0,0,.01-.02.02-.03,0,0,0,0,0,0,0,0,.01-.02.02-.03,0,0,0,0,0,0,0,0,.01-.02.02-.03,0,0,0,0,0,0,0,0,.01-.02.02-.03,0,0,0,0,0,0,0,0,.01-.02.02-.03,0,0,0,0,0,0,0,0,.01-.02.02-.03,0,0,0,0,0,0,0,0,.02-.02.02-.03h0s.02-.03.02-.04c0,0,0,0,0,0,0,0,.02-.02.03-.03h0s.02-.03.03-.04h0c.12-.15.27-.29.41-.42h0s.02-.02.03-.03h0s.02-.02.03-.03h0s.02-.02.03-.03h0s.02-.02.03-.03h0s.02-.02.03-.03h0s.02-.02.03-.03h0s.02-.02.03-.03h0s.02-.02.03-.03h0s.02-.02.03-.03c0,0,0,0,0,0,0,0,.02-.02.03-.03,0,0,0,0,0,0,0,0,.02-.02.03-.03h0s.02-.02.03-.03h0s.02-.02.03-.03h0c.06-.05.12-.1.18-.15,0,0,0,0,0,0,0,0,.02-.01.02-.02,0,0,0,0,0,0,0,0,.01-.01.02-.02h0s.01-.02.02-.02c0,0,0,0,0,0,0,0,.01,0,.02-.01,0,0,0,0,.01,0,0,0,0,0,.02-.01h0s0-.02.02-.02c0,0,0,0,0,0,0,0,0,0,.02-.01h0s0-.02.01-.02h0s.01-.02.02-.03c.08-.07.15-.14.23-.22.01,0,.02-.02.03-.03.08-.07.15-.14.23-.21,0,0,.02-.02.03-.03.25-.23.49-.45.74-.67,0,0,0,0,0,0,.25-.23.51-.44.77-.66h0c-2.37.02-4.32.15-6.46-1.2Z"/>
      <path id="_x31_239710" class="cls-11" d="M90.31,32.1c.41-.84,1-.97,1.75-1.35,1.03-.53,1.17-1.36,1.69-2.2-.22-.21-.45-.42-.66-.64h0s-.09-.09-.13-.13c0,0,0,0,0,0-.04-.04-.08-.09-.12-.13h0s-.08-.09-.12-.14h0c-.58.56-1.14,1.16-1.77,1.69-.79.66-1.69,1.43-2.05,2.43,0,.01,0,.03-.01.04.39.24.78.46,1.15.65,0,0,0,0,0,0,.05.03.11.05.16.08.03-.1.08-.2.13-.3Z"/>
      <path id="_x31_239632" class="cls-16" d="M130.21,81.26c-3.22,1.84-7.66,3.53-11.39,2.28-.1-.03-.21-.07-.31-.11-2.17.79-4.54,2.59-6.05,4.35,2.14,1.35,4.08,1.22,6.46,1.21h0c.94-.79,1.92-1.52,2.99-2.16,2.13-1.28,4.32-2.43,6.26-4,.71-.57,1.49-1.07,2.19-1.65-.05.03-.1.06-.15.09Z"/>
      <path id="_x31_239709" class="cls-16" d="M93.75,28.55c-.52.84-.66,1.67-1.69,2.2-.74.38-1.34.52-1.75,1.35-.05.1-.09.2-.13.3.03.01.06.03.09.04,1.56.72,3.16,1.16,4.86,1.37.56.07,1.15.14,1.74.2-.27-.86-.09-1.77.62-2.62-.79-.52-1.54-1.07-2.2-1.56-.48-.36-1.02-.8-1.55-1.28Z"/>
      <path id="_x31_239684" class="cls-16" d="M104.31,37.59c-.24-.11-.47-.22-.71-.33-1.04-.52-2.23-1.16-2.6-2.35-.1-.33-.11-.69-.02-1.01-1.31.28-2.73.25-4.1.12.61,1.98,3.56,3.65,7.43,3.57Z"/>
      <path id="_x31_239659" class="cls-16" d="M117.8,63.2c-.79-.45-1.67-.88-2.39-1.44-.56-.43-1.05-1.06-1.35-1.7.06.77-.49,1.79-.84,2.45-.55,1.03-1.33,1.89-2.05,2.8-.56.71-2.49,3.91-2.95,4.74-.46.85-2.47,4.14-3.06,4.91-.34.44-.71.87-1.1,1.27-.25.26-.95.85-1.16.99.2.02,1.12.31,1.4,1.19.3.96.33,3.02.68,4.78.36,1.81.86,4.59,1.68,5.75.84,1.18,2.36,1.64,3.75,2.18.05-.21.14-.42.24-.64,0,0,0,0,0,0-1.11-1.17-2.04-2.8-2.55-4.21-1.76-4.91-.6-11.32,2.65-15.36,1.45-1.8,3.62-4.24,6.13-4.25,1.89,0,3.47,1.44,4.84,2.59.44.37,2.89,2.23,2.44,3.14l.52.41c.14-.32.24-.68.29-1.1.54-4.28-4.03-6.73-7.16-8.5Z"/>
      <path id="_x31_239691" class="cls-16" d="M112.94,41.29c-.12-.21-.28-.39-.48-.53.19.14.35.31.47.52,1.73,3.1-4.16,2.76-5.53,2.42-.87-.22-1.64-.74-2.54-.88-.82-.13-1.59.04-2.4.13-.75.08-1.48-.1-2.23-.22-1.6-.24-3.23-.5-4.72-1.17-1.87-.84-3.57-2.03-4.97-3.52-1.37-1.46-2.36-4.38-1.68-6.38-.62-.38-1.24-.78-1.81-1.07-.39.97-.64,2.07-.73,3.35-.15,2.38,1.63,4.5,3.19,6.07,1.56,1.58,3.49,2.78,5.18,4.19,0,0,1.55,1.56,2.31,1.17,2.24-1.12,5.55.31,7.03.92,2.5,1.04,6.39,2.52,7.58,4.89-.17-1.96-.23-1.29-.17-1.96.05-.65.3-1.31.59-1.88.14-.28.3-.53.48-.77.64-1.16.67-2.7.7-3.97h0c.09-.35.02-.78-.28-1.31Z"/>
      <path id="_x31_239658" class="cls-11" d="M109.64,78.79c.42-2.01,1.25-3.93,2.24-5.34.75-1.06,1.96-2.32,3.19-2.82.94-.38,2.16-.57,3.17-.57,1.18,0,2.01.73,2.93,1.36.51.34,2.2,1.73,2.85,1.13.9-.82-1.84-2.9-2.31-3.3-1.37-1.15-2.95-2.6-4.84-2.59-2.52.01-4.68,2.45-6.13,4.25-3.26,4.04-4.41,10.46-2.65,15.36.51,1.41,1.44,3.04,2.55,4.21,0,0,0,0,0,0,0,0,0-.02.01-.03,0-.02.02-.04.03-.06,0,0,0-.02.02-.03,0-.02.02-.04.03-.06,0,0,0-.02.02-.03.01-.03.03-.05.04-.08,0,0,0-.01.01-.02.01-.02.02-.05.04-.07,0-.01.01-.02.02-.03,0-.02.02-.04.03-.05,0-.01.01-.02.02-.04,0-.02.02-.04.03-.05,0,0,.01-.02.02-.03.02-.03.03-.05.05-.08,0,0,.01-.02.02-.03,0-.02.02-.04.03-.05,0-.01.01-.02.02-.04,0-.02.02-.03.03-.05,0-.01.01-.02.02-.04.01-.02.02-.04.03-.05,0,0,.01-.02.02-.03.02-.03.03-.05.05-.08,0-.01.01-.02.02-.03,0-.02.02-.03.03-.05,0-.01.02-.02.02-.04,0-.02.02-.03.03-.05,0-.01.02-.02.02-.03.01-.02.03-.04.04-.06,0-.01.02-.03.03-.04.01-.02.02-.04.04-.05,0-.01.02-.02.02-.03,0-.01.02-.03.03-.04,0,0,.02-.02.02-.03,0-.01.02-.03.03-.04,0,0,.01-.02.02-.03.02-.02.03-.05.05-.07,0,0,.01-.02.02-.03,0-.02.02-.03.03-.04,0,0,.01-.02.02-.03,0-.01.02-.03.03-.04,0,0,.01-.02.02-.03.01-.02.02-.03.03-.05,0,0,0-.01.01-.02.02-.02.03-.04.05-.06,0,0,0-.01.02-.02,0-.01.02-.03.03-.04,0,0,.01-.02.02-.02,0-.01.02-.03.03-.04,0,0,0-.01.01-.02.01-.02.03-.04.04-.05.02-.03.04-.06.06-.08,0,0,.02-.02.02-.03.01-.02.03-.03.04-.05,0-.01.02-.03.03-.04,0-.01.02-.03.03-.04.01-.02.02-.03.04-.05,0,0,.01-.01.02-.02.05-.07.11-.13.17-.2,0,0,0,0,0,0,.02-.02.04-.05.06-.07-.09-.05-.17-.11-.26-.17-2.79-1.9-3.25-5.49-2.55-8.83Z"/>
      <path id="_x31_239689" class="cls-11" d="M90.55,38.05c1.41,1.49,3.11,2.68,4.97,3.52,1.49.67,3.12.92,4.72,1.17.75.11,1.48.3,2.23.22.81-.09,1.58-.26,2.4-.13.9.14,1.67.67,2.54.88,1.37.34,7.26.68,5.53-2.42-.12-.21-.28-.38-.47-.52,0,0,0,0,0,0,0,0-.02-.01-.03-.02-.39-.27-.89-.39-1.39-.42h0c-.38-.02-.77.02-1.1.1-1.05.27-2.36.75-3.45.44-.9-.26-1.47-.66-2.5-.37-3.88,1.1-8.63.6-11.67-2.34-1.38-1.34-2.86-3.74-2.13-5.76-.05-.03-.11-.05-.16-.08,0,0,0,0,0,0-.38-.19-.77-.42-1.15-.65-.68,2,.3,4.92,1.68,6.38Z"/>
      <path id="_x31_239657" class="cls-16" d="M124.03,72.55c-.66.59-2.35-.79-2.85-1.13-.92-.63-1.76-1.36-2.93-1.36-1.01,0-2.23.19-3.17.57-1.24.5-2.45,1.76-3.19,2.82-.99,1.41-1.83,3.33-2.24,5.34-.69,3.34-.24,6.92,2.56,8.83.09.06.17.12.26.17,1.53-1.79,3.94-3.61,6.14-4.38.03-.01.06-.02.09-.03h0c-.55-.87.28-2.66.71-3.37.79-1.29,1.92-2.16,3.05-3.1,0,0,.08-.06.17-.14h0c.36-.52.6-1.19.8-1.74,0-.02.01-.04.02-.06,0,0,0-.01,0-.02,0-.01,0-.03.02-.04,0,0,0-.02,0-.03,0-.01,0-.03.01-.04,0,0,0-.02,0-.03,0-.01,0-.03.02-.04,0,0,0-.02,0-.03,0-.02.01-.03.02-.05,0,0,0-.01,0-.02.02-.06.05-.13.08-.2,0,0,0,0,0-.01,0-.02.01-.03.02-.05,0,0,0-.02,0-.03,0-.01.01-.03.02-.04,0,0,0-.02.01-.03,0-.01.01-.03.02-.04,0,0,0-.02.01-.03,0-.02.01-.03.02-.05,0,0,0-.02,0-.03,0-.02.01-.03.02-.05,0,0,0-.02,0-.03.02-.04.03-.08.04-.12h0c.02-.06.04-.12.06-.18-.02.06-.04.12-.06.18.36-.31.65-.69.86-1.17l-.52-.41c-.02.06-.06.11-.12.16Z"/>
      <path id="_x31_239686" class="cls-16" d="M110.88,40.23h0c-.73-.4-1.7-.67-2.49-1.02-1.33-.59-2.74-1.03-4.07-1.63-3.87.08-6.82-1.59-7.43-3.57-.6-.05-1.18-.13-1.74-.2-1.7-.22-3.3-.66-4.86-1.37-.03-.01-.06-.03-.09-.04-.73,2.02.75,4.42,2.13,5.76,3.04,2.94,7.79,3.44,11.67,2.34,1.02-.29,1.59.11,2.5.37,1.08.31,2.4-.18,3.45-.44.33-.08.72-.13,1.1-.11l-.08-.05s-.05-.03-.07-.04Z"/>
      <path id="_x31_239631" class="cls-23" d="M132.93,68.77c-.25-1.54-.57-3.07-.89-4.6-.76-3.55-2.07-6.76-3.28-10.15-.44-1.23-.31-2.51-.3-3.78,0-1.3.09-2.57-.08-3.86-.17-1.3-.67-2.22-1.18-3.29-.25-.53-.43-1-.69-1.49-1.22-2.28-3.83-3.91-6.01-5.14-4.52-2.56-9.53-4.11-14.74-4.11-1.36,0-2.74-.03-3.94.51-.1.07-.22.13-.31.21-.52.46-.7,1.19-.49,1.85.37,1.19,1.56,1.82,2.6,2.35.22.11.45.22.68.32-.06-.05-.11-.1-.16-.16-.96-1.29,2.67-.92,3.16-.88,1.83.15,3.84.12,5.57.75,2.31.85,4.51,1.95,6.69,3.09,1.16.61,2.41,1.06,3.5,1.79,1.22.82,3.35,4.1.47,4.06-.55,0-1.05-.27-1.59-.35-2.48-.36-6.76,1.14-8.47,3.01-.34.37-1.58,2.84-1.21,3.65,0,.02.02.03.03.05,0-.02-.02-.03-.03-.05-.13-.24-.23-.47-.32-.69.11.28.23.56.36.84.71,1.48,1.51,3.53,1.71,5.15.09.77-.08,1.54.17,2.3-.17-.51-.16-1.26-.11-1.84-.14,1.76,2.42,3.23,3.74,3.71,1.29.47,2.91.97,4.27,1.11,1.81.19,2.8-.29,4.55.35.28.1,2.73,3.01,3.57,7.79.82,4.68-2.37,9.22-6.82,7.25-.45-.2-1.61-.92-1.07-1.46h0c-1.07.88-2.12,1.73-2.87,2.94-.43.71-1.26,2.5-.71,3.37h0c-.06.02-.12.04-.18.06.1.04.2.08.31.11,3.73,1.25,8.17-.45,11.39-2.28,1.83-1.04,3.11-2.44,3.35-4.59.29-2.59-.21-5.34-.63-7.89Z"/>
      <path id="_x31_239602" class="cls-23" d="M122.44,76.93c.42-.26,1.33.2,1.73.32.65.19,1.36.05,2.04.01,2.38-.12,2.88-2.77,2.74-4.66-.11-1.53-.49-2.69-1.11-4.1-.45-1.01-.89-2.34-2.11-2.62-.77-.18-1.46.03-2.22,0-.63-.02-1.29-.48-1.88-.68-1.28-.44-2.59-1.37-3.84-2.01,0,0,0,0,0,0,3.14,1.77,7.7,4.22,7.16,8.5-.13,1.05-.55,1.76-1.15,2.27-.14.39-.29.76-.4,1.05-.2.55-.44,1.22-.8,1.74h0c-.09.08-.17.14-.17.14-.06.05-.12.1-.18.15h0s.09-.07.16-.11Z"/>
      <path id="_x31_239628" class="cls-23" d="M111.5,49.34c.08-1.39,1.04-2.48,2.1-3.3,1.32-1.01,3.18-1.14,4.76-1.46.44-.09,4.07-.48,4.03-1.1-.03-.38-2.36-1.3-2.7-1.51-1.47-.9-2.86-1.83-4.5-2.39-2.62-.89-5.31-1.21-8.04-1.49-.49-.05-1.34-.02-2.03-.17,1.09.44,2.22.82,3.29,1.3.79.35,1.76.62,2.5,1.02h0,0s.05.03.07.04l.08.06h0c.77.04,1.54.32,1.91.97.3.53.37.96.28,1.31h0c-.03,1.27-.06,2.81-.7,3.97-.18.25-.34.5-.48.77-.54,1.09-.67,2.09-.51,3.11-.05-.4-.06-.76-.04-1.11Z"/>
      <path id="_x31_239629" class="cls-10" d="M123.52,65.89c.76.03,1.45-.19,2.22,0,1.22.29,1.66,1.61,2.11,2.62.62,1.4,1,2.57,1.11,4.1.14,1.89-.36,4.54-2.74,4.66-.68.04-1.4.18-2.04-.01-.4-.12-1.32-.58-1.73-.32-.88.55.43,1.37.91,1.58,4.44,1.97,7.63-2.58,6.82-7.25-.84-4.78-3.29-7.69-3.57-7.79-1.75-.64-2.74-.16-4.55-.35-1.37-.14-2.98-.64-4.27-1.11-1.31-.48-3.88-1.95-3.74-3.71-.05.6-.06,1.39.14,1.9h0c.02.05.04.1.07.15.11.21.23.4.37.59.03.04.06.07.09.11,1.18,1.27,2.03,1.56,3.09,2.15,1.25.64,2.57,1.57,3.84,2.01.59.2,1.25.66,1.88.68Z"/>
      <path id="_x31_239630" class="cls-10" d="M113.45,48.89c1.71-1.87,5.99-3.37,8.47-3.01.54.08,1.04.34,1.59.35,2.88.03.75-3.25-.47-4.06-1.09-.73-2.34-1.19-3.5-1.79-2.18-1.14-4.38-2.24-6.69-3.09-1.73-.64-3.75-.6-5.57-.75-.48-.04-4.12-.41-3.16.88.04.06.1.11.16.16.27.12.54.23.81.34.7.15,1.55.12,2.03.17,2.74.29,5.42.6,8.04,1.49,1.64.56,3.04,1.48,4.5,2.39.34.21,2.67,1.12,2.7,1.51.04.62-3.59,1.01-4.03,1.1-1.57.32-3.44.45-4.76,1.46-1.06.82-2.02,1.91-2.1,3.3-.02.35-.02.72.04,1.11.07.46.2.92.38,1.39.09.22.2.45.32.69-.37-.8.87-3.28,1.21-3.65Z"/>
      <path id="_x31_239597" class="cls-8" d="M136.8,34.14c1.62,1.64,1.19,4.08.7,5.95-.31,1.19-.72,2.33-.95,3.54-.35,1.82-1.18,7.01-1.38,7.76-.06.23-1.35,5.18-1.57,5.98-.1.36-.18.74-.25,1.11-.26,1.27-.5,2.54-.66,3.82-.07.52-.33,2.39-.35,3.31.25,1.29.53,2.75.6,3.15.42,2.55.92,5.31.63,7.9-.1.9-.29,1.47-.95,2.53.92-.26,1.35.82,1.42.96.47,1,.42,3.39.18,5.34.87-2.17,1.46-3.27,2.2-4.51.84-1.41,1.74-2.79,2.51-4.24.37-.69.72-1.4.97-2.15.44-1.3.83-2.61,1.21-3.92.75-2.6,1.42-5.21,2.06-7.83.3-1.23.58-2.46.88-3.69.14-.56.75-3.28.8-4.1.07-1.04,0-2.08.14-3.12.59-4.51,2.31-8.32,3.93-12.72.12-.32.47-1.54.57-2.2-.27.3-1.66-.47-1.95-.63-1.49-.82-3.21-1.32-4.9-1.52-1.69-.21-3.56.32-5.09-.47-.29-.15-.6-.28-.9-.41l.15.15Z"/>
      <path id="_x31_239596" class="cls-8" d="M137.56,34.39c-.81-.42-1.73-.66-2.39-1.26-.43-.39-.97-1.21-1.27-2.22.3-.88.31-.95.54-1.24.28-.36.65-.66,1.03-.9.77-.47,1.58-.03,2.34.21.76.23,1.54.4,2.3.65,1.93.63,3.81,1.36,5.7,2.11.7.28,2.81,1.26,3.2,1.45.36.18.7.32,1.08.47-.1.22-.13.43-.15.67-.06.75-.17,1.51-.32,2.25-.06.31-.13.59-.49.52-.31-.06-1.36-.58-1.61-.71-1.49-.82-3.21-1.32-4.9-1.52-1.69-.2-3.56.32-5.09-.47Z"/>
      <path id="_x31_239572" class="cls-8" d="M127.55,38.7c.17-.51.47-1.03.79-1.46.99-1.33,2.55-2.94,1.28-4.65.9.75,2.11,1.79,3.18.7.31-.32.74-1.26,1.09-2.35.67,1.88,1.15,2.05,1.48,2.34.54.46,1.32.62,1.75,1.2,1.18,1.63.85,3.8.37,5.61-.31,1.19-.72,2.33-.95,3.54-.35,1.82-1.18,7.01-1.38,7.76-.06.23-1.35,5.18-1.57,5.98-.22.78-1.13,5.35-1.27,8.19-.08-1.22-1.27-4.96-1.4-5.42-.11-.39-1.38-3.87-1.62-4.63-.16-.5-.64-1.28-.8-2.37-.21-1.44-.02-4.18-.03-4.66-.02-.87.06-1.59-.14-2.44-.11-.46-.17-.92-1.07-2.85.06-.64-.16-3.11.29-4.51Z"/>
      <path id="_x31_239598" class="cls-8" d="M134.26,81.17c-.09-1.62-1.16-1.99-1.26-2.01-.47-.08-.72.35-1.04.75-.43.53-1,.91-1.61,1.26-.7.59-1.48,1.08-2.19,1.65-1.94,1.57-4.13,2.71-6.26,4-1.07.65-2.05,1.38-2.99,2.16h0c-.26.22-.51.44-.77.66,0,0,0,0,0,0-.25.22-.49.44-.74.67,0,0-.02.02-.03.03-.08.07-.15.14-.23.21-.01,0-.02.02-.03.03-.08.07-.15.14-.23.22,0,0-.01.01-.02.02h0s0,.02-.01.02h0s0,.02-.02.02c0,0,0,0,0,0,0,0,0,0-.02.01h0s0,.02-.02.02c0,0,0,0-.01,0,0,0,0,0-.02.01,0,0,0,0,0,0,0,0-.01,0-.02.02h0s-.01.02-.02.03c0,0,0,0,0,0,0,0-.02.01-.02.02,0,0,0,0,0,0-.06.05-.12.1-.18.15h0s-.02.02-.03.03h0s-.02.02-.03.03h0s-.02.02-.03.03c0,0,0,0,0,0,0,0-.02.02-.03.03,0,0,0,0,0,0,0,0-.02.02-.03.03h0s-.02.02-.03.03h0s-.02.02-.03.03h0s-.02.02-.03.03h0s-.02.02-.03.03h0s-.02.02-.03.03h0s-.02.02-.03.03h0s-.02.02-.03.03h0s-.02.02-.03.03c-.14.13-.28.28-.41.42h0s-.02.02-.03.03h0s-.02.02-.03.04c0,0,0,0,0,0,0,0-.02.02-.02.03h0s-.02.03-.02.04c0,0,0,0,0,0,0,0-.01.02-.02.03,0,0,0,0,0,0,0,0-.01.02-.02.03,0,0,0,0,0,0,0,0-.01.02-.02.03,0,0,0,0,0,0,0,0-.01.02-.02.03,0,0,0,0,0,0,0,0-.01.02-.02.03,0,0,0,0,0,0,0,0-.01.02-.02.03,0,0,0,0,0,0,0,0,0,.02-.02.03,0,0,0,0,0,0,0,0,0,.02-.02.03,0,0,0,0,0,0,0,0,0,.02-.01.03,0,0,0,0,0,0,0,0,0,.02-.01.03,0,0,0,0,0,0,0,0,0,.02-.01.03,0,0,0,0,0,0,0,0,0,.02-.01.03,0,0,0,0,0,0,0,0,0,.02,0,.03,0,0,0,0,0,0,0,0,0,.02,0,.03,0,0,0,0,0,0,0,0,0,.02,0,.03,0,0,0,0,0,0,0,0,0,.02,0,.03,0,0,0,0,0,0,0,0,0,.02,0,.03,0,0,0,0,0,0,0,0,0,.02,0,.03h0s0,.02,0,.04h0s0,.02,0,.04h0s0,.05,0,.07c0,0,.03.3.06.53.22.1.43.2.65.3,1.29.57,2.99.94,3.79,2.24.47.77.09,1.8.79,2.42.23.2.48.34.73.47.24.12.48.22.72.34.27.14.52.3.75.53.47.48,1.02,1.32,1.78,1.36.81.04,1.86-1.44,2.44-1.93,1.11-.94,2.21-1.87,3.11-3.02,1.83-2.35,2.47-3.54,3.05-6.29.28-1.34.74-2.58,1.14-4.08.4-1.54.2-3.07.12-4.66Z"/>
      <path id="_x31_239600" class="cls-8" d="M119.73,36.04c.25.14.5.27.75.41,1.26.71,2.46,1.43,3.58,2.35,1.24,1.03,2.19,1.9,3.18,4.44.11-.74.02-1.23,0-1.98-.04-1.69.27-3,1.36-4.32.8-.98,1.95-2.45,1.34-3.76-.31-.68-.86-1.28-1.28-1.89-.47-.68-.93-1.37-1.41-2.04-1.41-1.99-3.1-3.79-5.13-5.15-1.16-.78-2.4-1.39-3.7-1.89-1.32-.51-2.5-.87-3.92-1.1-.86-.15-1.71-.32-1.39.89.26.98,1,1.76,1.33,2.71.51,1.49.74,3.05.74,4.63,0,1.65-.39,2.94-.74,4.52.76.01,1.61.51,2.3.8,1.01.43,2,.9,2.97,1.42Z"/>
      <path id="_x31_239514" class="cls-15" d="M35.65,67.1c.12.3.15.68.19.96.11.72.21,1.45.36,2.16.31,1.53.63,3.06.96,4.59.19.88.39,1.77.6,2.65.22.93.23,1.56-.68,2.05-.88.47-2.48.97-3.46.69-1.08-.3-1.32-1.71-1.45-2.65-.28-1.87-.21-3.83.04-5.7.18-1.36.47-2.8,1.21-3.98.34-.56,1.2-1.73,1.98-1.14.12.09.21.23.27.38Z"/>
      <path id="_x31_239512" class="cls-15" d="M40.64,92.02c1.27.47,2.92.54,4.24.27.49-.1.79-.25.91-.43.25-.35-.09-.81-.73-1.24-3.3-2.23-5.32-6.59-5.92-8.24-.53-1.45-1.41-2.5-3-2.06-1.29.35-2.4,1.07-3.49,1.82-1.65,1.13-.29,3.48.54,4.62,1.93,2.65,4.44,4.16,7.44,5.26Z"/>
      <path id="_x31_239495" class="cls-21" d="M96.7,96.85c-2.13-.02-4.5-1.54-6.98-3.08-1.2-.75-2.72-.96-4.08-.53-.98.32-1.1,2.02-.56,2.3,1.49.77,2.27,1.07,3.64,2.04.97.69,1.94,1.39,3.01,1.92,1.12.55,2.11,1.02,3.5,1.22,2.2.32,2.78-1.53,3.48-2.97.15-.31.55-.98.09-1.21-.24-.12-.67.08-.91.14-.38.1-.79.18-1.19.17Z"/>
      <path id="_x31_239498" class="cls-21" d="M75.46,105.68c-.28.48-.55.96-.82,1.45-1.29,2.38,1.47,1.64,3.7,2.04,1.67.3,4.1.27,6.03-.11,1.59-.31,2.92-.43,3.54-1.2.67-.83-.72-1.85-1.07-2.71-.51-1.28-1.16-2.27-2.11-3.43-.54-.65-2.72-.52-3.72-.55-1.16-.04-2.41-.55-2.99.37-.86,1.37-1.73,2.74-2.56,4.14Z"/>
      <path id="_x31_239497" class="cls-21" d="M85.72,99.69c0,.35-.01.66-.02.87-.15,2.79,2.21,6.59,5.13,7.12,2.83.52,5.92-5.07,2.17-6.91-1.24-.61-2.47-1.37-3.69-2-.73-.38-1.87-1.73-2.79-1.48-.66.18-.78,1.44-.81,2.4Z"/>
      <path id="_x31_239493" class="cls-17" d="M102.66,96.98c2.36-.08,2.53-.88,4.28-1.18,2-.33,3.79.71,5.53,1.58,1.44.73,2.96,2.1,4.58,2.32,1.36.19,2.46-.86,2.45-2.23,0-1.85-2.33-2.64-3.72-3.28-.85-.4-1.73-.65-2.6-.99-1.47-.56-3.16-1.11-4.59-1.75-1.39-.62-2.95-1.19-4.42-1.37-.62-.08-1.07,0-1.4.22-.8.53-.8,1.7-1.23,2.82-.33.87-1.41,2.25-.99,3.12.27.55,1.5.77,2.1.74Z"/>
      <path id="_x31_239442" class="cls-1" d="M78.79,51.47c.88-1.6.61-2.71.35-4.4-.17-1.14,1.06-3.15,2.12-4.29.05-.03.1-.07.14-.11,0,0,0,0,0,0,.62-.56.66-2.5,1.49-2.47.07,0-.43-.87-.33-2.19.02-.21,0-.43-.06-.65-1.07-.3-.83-1.69-1.55-2.48-1.51-1.65-4.59.26-6.4.78-5.83,1.68-11.41,2.69-16.74,5.87-8.64,5.16-19.34,11.73-20.69,22-.91,6.94.77,14.32,3.09,20.19,1.07,2.71,2.62,4.66,4.84,6.46.97.79,3.1,1.97,4.2,2.56.06.03.12.07.19.1,1.45.67,2.73.86,4.62.44,2.35-.52,4.63-1.26,6.4-2.1,2.94-1.39,5.04-3,8.01-4.98,1.07-1.08,2.94-1.92,2.8-3.62-.12-1.42-1.51-3.37-1.88-4.73-.43-1.58-.47-3.7-.3-5.34.38-3.64,2.42-7.75,4.61-10.61,1.25-1.64,2.67-3.07,3.51-5.01.38-.24.7-3.86,1.56-5.43Z"/>
      <path id="_x31_239443" class="cls-2" d="M71.64,83.87c-1.76,1.72-3.81,3.44-5.96,4.73-2.23,1.34-4.51,2.65-6.92,3.66-1.27.53-2.56.95-3.89,1.29-1.01.25-2.27.34-3.28.58.35.24.64.45.79.61,2.2.7,7.25,1.78,10.09,1.99,2.46.18,4.75.72,6.06-1.65.14-.25.26-.51.36-.77.1-.27.42-.95.42-1.33.29-1.06.52-2.12,1.1-3.04.82-1.29,2.97-3.21,4.16-4.56,1.23-1.39-1.79-2.61-2.93-1.51Z"/>
      <path id="_x31_239466" class="cls-22" d="M76.8,99.06c-1.26-.95-2.77-1.73-3.99-2.61-1.35-.97-2.86-2.83-4.12-.65-.54.93-6.03,7.85-4.91,9.31,1.63,2.12,2.4,2.36,4.35,4.12,1.57,1.42,2.86,2.54,4.58.36.63-.8.96-1.71,1.44-2.59.93-1.72,2.62-4.87,3.9-6.9.08-.13-.93-.8-1.25-1.04Z"/>
      <path id="_x31_239469" class="cls-22" d="M82.42,92.03c-1.09-.83-2.37-1.67-3.56-1.92-2.97-.62-5.74,2.76-7.15,4.85l-.08.11c.39.26.79.48,1.1.67,1.63,1.02,2.84,1.78,4.33,2.59,1.14.61,2.04.23,3.03-.4,1.11-.71,3.21-1.31,3.82-2.1.25-.32.28-.83.29-1.33-.07-.28-.18-.71-.18-.71-.04-.43-1.26-1.5-1.6-1.76Z"/>
      <path id="_x31_239470" class="cls-22" d="M89.27,79.89c-.64-.07-.95-.21-1.57-.39-.99-.28-2.5.67-4.06,1.51-1.55.84-3.18,1.24-4.82,1.83-.99.35-1.19.38-2.2.63-.9.22-1.34,1.72-2.55,3.01-1.35,1.43-3.54,3.78-3.67,4.6-.11.71-.33,1.85-.1,2.54.2.6.75,1.07,1.32,1.45l.08-.11c1.4-2.09,4.18-5.47,7.15-4.85,1.19.25,2.47,1.09,3.56,1.92.34.26,1.56,1.34,1.6,1.76,0,0,.11.43.18.71.02-.62.03-1.23.43-1.47,1.35-.81,1.79-.72,2.43-2.46.8-2.16,1.8-4.29,2.07-6.6.04-.36.28-4.07.14-4.08Z"/>
      <path id="_x31_239488" class="cls-22" d="M79.33,100.66c-2.12-1.19,2.72-3.23,3.38-3.52,1.72-.78,2.89-1.04,2.61,1.25-.16,1.3-.59,2.15-1.95,2.39-.84.15-3.32.29-4.04-.11Z"/>
      <path id="_x31_239491" class="cls-21" d="M94.02,95.41c-.87-.21-2.97-.69-2.9-1.79.06-.95,1.12-1.39,1.93-1.34.78.05,2.16.85,2.52,1.53.68,1.31-.38,1.89-1.55,1.6Z"/>
      <path id="_x31_239471" class="cls-22" d="M98.91,80.28c-.66,0-1.32-.06-1.98-.16-.66.07-1.27.25-1.5.5-.39.44-.88.59-1.8.39-.67-.14-2.27-.43-3.96-.88.29,2.29-.23,4.7-.55,5.88-.48,1.73-2.38,6.24-1.3,6.48,1.66.4,2.53,2.04,3.29.45.45-.94,1.66-1.18,3.22-.51,1.12.48,1.76,1.23,1.79,2.1.04.92-1.69,1.89.55,1.98,1.81.07,3.15-.96,4.08-2.55,1.39-2.36.4-3.1-.95-4.69-.62-.72-2.25-2.08-1.36-3.67.93-1.66,1.42-3.63.93-4.74-.14-.2-.28-.37-.4-.53-.02-.01-.04-.03-.07-.04Z"/>
      <path id="_x31_239445" class="cls-19" d="M87.43,78.31c1.57-1.05,3.63-2.84,4.92-4.16-2.6-.55-5.95-4.02-7.95-7.35-.86-1.42-1.73-3.41-2.69-4.16-2.3-1.79-2.52-4.29-3.59-5.2-.23.37-1.91,2.25-2.38,2.9-1.55,2.16-3.32,4.16-4.38,6.63-.84,1.95-1.91,5.21-1.69,8.37.3,4.53,2.21,8.83,7.16,7.64,3.71-.89,7.38-2.51,10.6-4.66Z"/>
      <path id="_x31_239441" class="cls-22" d="M48.76,95.08c2.1,1.57,4.32,2.4,6.51,3.77,2.07,1.3,7.62,5.39,8.96,2.86.41-.77,2.03-3.36,2.35-4.07.26-.58-6.57-.69-7.3-.79-1.03-.14-2.09-.27-3.08-.6-1.51-.5-2.94-.95-4.35-1.6-1.29-.59-2.59-1.35-3.8-2.09-.54-.33-1.4-.65-1.55.28-.19,1.17,1.47,1.64,2.27,2.23Z"/>
      <path id="_x31_239422" class="cls-19" d="M110.68,53.96c-.76-1-1.93-2.01-2.97-2.72-1.19-.82-2.54-1.57-3.84-2.16-1.57-.71-3.69-1.61-4.6-1.65-1.18-.04-4.24-.22-4.3,1.78-.02.57-.08,1.34.01,2.01-.29.82-1.06,1.07-1.06,1.07h0c-.05.04-.11.09-.16.13-.98.88.61,2.64,1.02,3.39.73,1.34.69,3-1.31,2.56-1.67-.36-6.02-2.8-6.89.13-.79,2.64,3.32,4.73,5.09,5.67,1.19.63,2.99,1.19,3.71,2.42.87,1.49.32,4.26,1.36,5.3.23.23.48,1.05.76.86,1.24-.87,3.4-2.5,4.31-3.04.83-.5,3.54-2.24,4.98-3.28.05-.04.1-.08.13-.13l.62-.46c.46-.41,1.93-1.37,2.23-2.27l1.34-1.76-.02-.04c.54-.54.77-1.45.89-2.17.35-2.09-.03-3.95-1.31-5.65Z"/>
      <path id="_x31_239440" class="cls-19" d="M110.16,62.22c-.92.11-2.25-.29-2.74-1.05-.62-.95-.59-2.46-.67-3.54-.17-2.2-1.79-3.04-3.54-4.12-1.9-1.17-4.19-1.33-6.36-.87-2.21.46-1.91-2.06-1.87-3.42.06-2,3.12-1.83,4.3-1.78.91.03,3.03.93,4.6,1.65,1.3.59,2.65,1.34,3.84,2.16,1.04.71,2.21,1.72,2.97,2.72,1.28,1.69,1.66,3.56,1.31,5.64-.17.99-.54,2.34-1.62,2.58-.06.02-.13.03-.2.04Z"/>
      <path id="_x31_239424" class="cls-5" d="M106.8,66.43c-1.44,1.05-4.15,2.79-4.98,3.28-.91.54-3.07,2.17-4.31,3.04-.27.19-.52-.63-.76-.86-1.04-1.04-.49-3.81-1.36-5.3-.72-1.23-2.52-1.78-3.71-2.42-1.76-.94-5.87-3.02-5.09-5.67.87-2.93,5.21-.5,6.89-.13,2,.43,2.04-1.22,1.31-2.56-.41-.75-2-2.5-1.02-3.39.98-.88,2.07.95,2.58,1.54,1.21,1.42,1.79,3.5,2.5,5.23.97,2.35,1.21,6.75,4.87,6.38.7-.07,2.91-1.12,3.25-.11.1.31.13.72-.17.94Z"/>
      <path id="_x31_239427" class="cls-19" d="M100.3,52.94c-.78-.14-3.97-.31-3.1,1.19.38.66,1.14.8,1.79,1.05,1.42.54,2.75,1.29,3.89,2.31.59.53,1.38,2.09,2.31,1.89.98-.21.93-1.97.75-2.69-.34-1.34-1.7-2.07-2.91-2.57-.89-.36-1.78-1-2.73-1.18Z"/>
      <path id="_x31_239425" class="cls-19" d="M108.27,62.25c-.2-.03-.4-.08-.58-.18-.58-.34-1.08-1.01-1.59-1.46-.5-.44-1.07-.5-1.62-.79-.69-.36-1.27-.99-1.8-1.54-.95-1-2-1.94-3.29-2.47-1.2-.49-.49,1.51-.38,2.01.32,1.37.88,2.68,1.2,4.04.24,1.05.71,2.14,1.7,2.71,1.52.87,3.11-.18,4.72-.08.55.03.79.27.93,1.34.64-.56,3.2-2.18,1.95-3.25-.33-.28-.79-.27-1.23-.34Z"/>
      <path id="_x31_239959" class="cls-4" d="M99,84.46c-.42,1.11-1.15,1.83-.78,3.01.72,2.29,3.73,2.51,5.64,2.76,1.85.24,2.96.65,4.64,1.4,1.44.64,3.12,1.19,4.59,1.75.68.26,1.59.74,2.38.84,1.37.18-2.35-1.58-2.97-1.89-.88-.44-1.76-.85-2.71-1.24-.28-.12-.61-.23-.89-.36-.61-.27-1.2-.57-1.79-.87-.39-.21-.83-.35-1.23-.53-1.57-.67-2.67-.92-3.66-2.41-.6-.92-2.07-4.9-2.79-5.68.12,1-.06,2.22-.44,3.23Z"/>
      <path id="_x31_239962" class="cls-4" d="M112.66,53.82c-.82-1.86-1.21-2.95-2.34-3.99-1.22-1.12-3.95-2.35-6.36-3.35-2.31-.96-5.22-1.95-7.46-.73-.42.23-.99,2-.24,1.9,1.32-.21,2.24-.39,3.25-.21,1.62.28,3.18,1.13,4.68,1.78,4.9,2.1,10.12,6.67,7.03,12.44-2.03,3.8-6.95,6.7-9.5,8.23-2.82,1.69-3.81,3.58-9.21,5.07-2.27.62-4,4.09,1.28,4.84,1.01.14,2.02.35,3.04.5.66.09,1.32.16,1.98.16h.03c-.86-.86-.17-1.36.8-1.41.37-.02.76.11,1.1.23.16.06.4.13.52-.03.11-.14.12-.35.16-.52.05-.25.06-.5.16-.75.17-.46.5-.77,1.01-.66.07.01.13.03.19.05.07,0,.13-.03.17-.06,4.14-3.63,4.79-7.4,8.12-11.81,1.42-1.87,3.22-3.78,2.91-6.75-.16-1.45-.79-3.69-1.33-4.91Z"/>
      <path id="_x31_239964" class="cls-4" d="M90.88,78.66c-.79-.63-1.39-.64-2.4-.05-1.49.87.12,1.3,1.15,1.64,1.38.45,2.69.74,4.26.93.46.06,1.56.07,1.52-.55-.06-.86-1.4-.8-1.95-.86-.89-.09-1.96-.62-2.58-1.11Z"/>
      <path id="_x31_239986" class="cls-4" d="M45.61,91.1l.27-.41c1.07.71,2.56,1.54,3.42,2,.06.03.12.07.19.1.55.3,1.45.83,2.13,1.29.35.23.64.45.79.6.16.16.16.26-.09.24-.25-.08-.49-.17-.72-.28-.43-.19-.84-.45-1.26-.68-.38-.21-.78-.38-1.15-.6-.37-.22-.74-.45-1.09-.68-.39-.26-.8-.49-1.19-.74-.43-.27-.87-.55-1.3-.84Z"/>
      <path id="_x31_239987" class="cls-7" d="M43.96,109.74c1.18-.34,1.4-1.91.52-2.71-1.25-1.14-2.88-2.05-4.24-3.08-1.47-1.1-2.95-2.19-4.49-3.18-2.2-1.42-4.38-2.86-6.5-4.41-4.49-3.28-8.01-7.42-10.11-12.6-.21-.52-1.11-3.05-1.75-2.29-.12.14-.17.42-.19.79.13,1.17.29,2.6.62,3.66.74,2.38,2.02,4.47,3.68,6.12,4.04,3.99,8.66,7.99,13.61,12.06,2.47,2.03,5.06,3.98,7.49,5.66.39.12.83.13,1.35-.02Z"/>
      <path id="_x31_239988" class="cls-4" d="M45.61,91.1c-.16-.11-.32-.22-.49-.32,0,0,0,0,0,0-.05-.04-.1-.07-.15-.11-3.3-2.23-5.32-6.59-5.92-8.24-.02-.06-.05-.13-.07-.19-.44-1.25-.89-2.95-1.31-4.74-.04-.16-.07-.32-.11-.48-.03-.14-.07-.28-.1-.42-.13-.58-.26-1.16-.39-1.75-.03-.12-.05-.25-.08-.37-.03-.15-.06-.3-.1-.45-.06-.26-.11-.53-.17-.79-.04-.19-.08-.38-.12-.57-.01-.06-.03-.13-.04-.19-.03-.14-.06-.29-.09-.43-.02-.11-.04-.21-.07-.31-.02-.11-.04-.22-.07-.33-.01-.07-.03-.13-.04-.2-.07-.32-.13-.64-.2-.95-.15-.72-.25-1.44-.36-2.16-.03-.22-.06-.5-.13-.76-.04-.36-.08-.7-.11-1.03-.1-1.18-.1-2.23-.02-3.18.17-2.03.7-3.67,1.45-5.37.5-1.14,1.1-2.3,1.75-3.61.99-2,4.87-5.76,6.51-7.33.22-.22.47-.43.75-.65,3.15-2.53,9.36-5.42,12.01-7.19,3.41-2.29,16.27-6.71,19.75-8.78,1.97-1.17,6.47-3.61,9.19-5.87,1.37-1.13,2.93-1.95,4.55-2.81,1.11-.6,2.26-1.22,3.39-2,.85-.58,1.73-1.06,2.62-1.44,6.68-2.86,14.32-.48,20.78,1.19,2.86.74,5.76,1.4,8.34,2.3,2.45.86,4.53,1.6,7.01,2.36.64.2,2.83,1.13,3.25,2.11.2.48.21.88.11,1.22-.17.53-.62.93-1.1,1.26-.01,0-.02.02-.04.03,0,0,0,0-.01,0-.48.32-.82.47-1.15.83-.02.01-.03.03-.04.04-.18.18-.32.43-.46.72,0,0,0,.01,0,.02-.07.14-.15.3-.23.49-.16.36-.29.86-.47,1.35,0,0,0,.02,0,.02-.28.72-.61,1.36-1.11,1.65-.02.01-.04.02-.06.03-.03.02-.06.03-.1.04-.33.12-.74.11-1.24-.11-.38-.17-.73-.42-1.07-.73-.04-.04-.08-.08-.13-.12-.94-.94-1.73-2.32-2.56-3.48-3.28-4.65-6.97-6.73-11.31-7.81-4.49-1.12-8.34-1.64-11.93-1.06-2.18.35-4.08.79-5.77,1.44-.77.29-1.49.63-2.18,1.02-3.11,1.76-5.98,3.27-7.79,5.66-.14.18-.27.36-.39.55-.87,1.33-1.42,2.91-1.55,4.93-.15,2.38,1.63,4.5,3.19,6.08,1.57,1.58,3.49,2.78,5.18,4.19.02.02.04.03.06.05,0,0,0,0,0,0,.04.03.09.08.15.14,0,0,.02.02.03.03,1.45,1.47,0,3.05-.05,4.74-.03,1.15.28,2.31-.69,2.94-1.54,1-.24,2.19.58,3.71.73,1.34.69,3-1.31,2.56-1.68-.36-6.02-2.8-6.89.14-.79,2.64,3.32,4.73,5.08,5.67,1.19.63,2.99,1.19,3.71,2.41.84,1.43.27,3.36,1.14,4.95.46.84.7,1.2-.42,1.89-2.2,1.35-4.55.61-6.48-.8-1.32-.96-2.36-2.2-3.39-3.45-.86-1.04-1.66-2.27-2.27-3.37-.95-1.68-1.93-2.82-3.19-4.25-.7-.79-1.17-1.7-1.58-2.67-.19-.46-.38-.91-.72-1.29-.31-.34-.72-.62-1.16-.77-.56-.19-1.15-.29-1.69-.54-.76-.34-3.35-1.95-2.87-3.11.39-.95,2.18-.12,2.84.03,1.87.43,2.43-.25,3.29-1.81.88-1.6.61-2.7.35-4.39-.17-1.14,0-4.17.87-5,.67-.63,1.05-.13,1.25.71.05-.03.1-.07.14-.1,0,0,0,0,0,0,.62-.56.57-1.92,1.1-2.33.05-.04.1-.07.15-.09,1.51-.54.9,3.22.71,3.86-.11.38-.21,1.12-.11,1.49.21.78.59.21,1.21.36.72.18,1.02,1.03,1.75,1.15-.32-.74-1.14-1.78-1.4-2.92-.32-1.42-.19-2.18-.18-3.8,0-1.83.62-2.91.36-4.56-.12-.75-.17-1.5-.31-2.25-.11-.6-.66-.98-.3-1.48.44-.62,1.06-2.34.6-2.17-.33.14-.45,1.5-.76,1.94-.7,1-1.59,1.12-1.79,1.93-.11.45,1.18,3.75.26,3.61-.07,0-.13-.03-.2-.04-1.07-.3-.83-1.68-1.55-2.48-1.51-1.64-4.58.26-6.39.78-5.83,1.68-11.4,2.69-16.72,5.87-8.63,5.15-19.32,11.72-20.67,21.98-.91,6.93.76,14.3,3.09,20.16,1.07,2.71,2.62,4.66,4.84,6.46.21.17.48.36.78.56l-.27.42Z"/>
      <path id="_x31_239989" class="cls-2" d="M62.62,93.35c1.76,1.21,5.09,2.05,6.26.97.17-.43.3-.88.42-1.33-.48-2.79-9.78-1.76-6.68.36Z"/>
      <path id="_x31_239932" class="cls-18" d="M102.02,77.37c-.2.12-.35.36-.47.73-.08.26-.14.57-.2.95,0,0,0,.02,0,.03-.13.62-1.23-.27-2.06,0-1.15.37-.92.69-.39,1.41.12.16.25.34.4.53.29.4.62.89.9,1.48.45.98.79,1.82,1.27,2.79.34.67,1.51,4.21,4.02,2.56.42-.28-.17-2.4-.58-4.5-.35-1.76-.51-3.53-.52-3.94-.03-.92-.44-1.72-1.59-2.05-.06-.02-.12-.03-.19-.05-.23-.05-.42-.03-.57.06Z"/>
      <path id="_x31_239933" class="cls-18" d="M83.38,44.23c.25-1.21.4-2.4.13-3.42-.16-.6-.63-.94-.75-1.61-.14-.75.29-1.59.28-2.34-.01-.91-.68-2.39-.58-2.95.15-.82,1.09-.93,1.79-1.93.25-.35.41-1.83.82-1.95.38-.11-.23,1.55-.67,2.17-.35.5.2.88.3,1.48.13.75.19,1.5.31,2.25.26,1.65-.35,2.73-.36,4.56,0,1.62-.14,2.38.18,3.8.26,1.14,1.07,2.17,1.39,2.92-.73-.12-1.04-.97-1.75-1.15-.62-.15-.99.42-1.21-.36-.1-.38.03-1.11.11-1.5Z"/>
    </g>
  </g>
</svg>